<?xml version="1.0" standalone="no"?>
<!DOCTYPE svg PUBLIC "-//W3C//DTD SVG 20010904//EN"
 "http://www.w3.org/TR/2001/REC-SVG-20010904/DTD/svg10.dtd">
<svg version="1.0" xmlns="http://www.w3.org/2000/svg"
 width="2048.000000pt" height="2048.000000pt" viewBox="0 0 2048.000000 2048.000000"
 preserveAspectRatio="xMidYMid meet">
<metadata>
Created by potrace 1.14, written by Peter Selinger 2001-2017
</metadata>
<g transform="translate(0.000000,2048.000000) scale(0.100000,-0.100000)"
fill="#000000" stroke="none">
<path d="M8780 17787 c-80 -23 -124 -50 -191 -116 -48 -48 -71 -81 -86 -121
-16 -43 -127 -699 -120 -706 1 -1 1347 -287 2991 -635 2065 -436 2990 -628
2995 -621 4 6 31 168 60 359 61 389 61 413 5 527 -37 76 -134 167 -206 194
-76 28 -5260 1124 -5338 1128 -36 2 -85 -2 -110 -9z"/>
<path d="M8030 15349 c-69 -326 -129 -598 -135 -605 -5 -7 -376 -114 -822
-238 -447 -124 -832 -235 -855 -247 -56 -29 -140 -115 -171 -175 -32 -63 -51
-161 -44 -223 10 -86 915 -3331 948 -3398 32 -66 105 -140 171 -174 64 -32
157 -52 218 -46 87 10 5274 1453 5331 1483 137 75 236 258 214 398 -4 22 -42
171 -86 330 -44 159 -78 291 -75 293 2 3 134 -23 293 -56 356 -76 372 -78 452
-57 125 32 221 107 275 215 20 39 71 260 211 924 102 481 185 881 185 890 0
10 -3 17 -7 17 -22 0 -2059 434 -2067 441 -4 4 -30 87 -58 186 -69 251 -120
326 -268 397 -59 28 -74 31 -160 30 -91 0 -115 -6 -598 -141 l-502 -141 -1153
244 c-633 134 -1157 244 -1162 244 -6 0 -67 -266 -135 -591z m3580 46 c17 -9
33 -28 39 -47 21 -66 171 -612 171 -624 0 -6 -46 -24 -102 -40 -57 -15 -1248
-346 -2648 -735 -1400 -388 -2549 -703 -2553 -699 -12 11 -177 612 -177 648 0
18 8 40 18 50 11 11 90 38 188 66 995 277 5021 1395 5027 1395 4 1 21 -6 37
-14z m1587 -934 c183 -39 336 -77 354 -87 17 -11 41 -31 52 -45 37 -51 34 -96
-38 -435 -37 -176 -73 -330 -80 -344 -27 -53 -87 -90 -143 -90 -32 0 -637 127
-673 141 -40 16 -86 70 -98 115 -10 37 -3 77 58 366 38 179 76 339 84 354 29
56 83 91 142 93 11 0 165 -30 342 -68z m-908 -1415 c144 -517 261 -950 261
-962 0 -62 134 -22 -2630 -788 -1422 -394 -2595 -716 -2608 -716 -35 0 -58 16
-70 47 -16 40 -522 1868 -522 1886 0 10 42 26 138 53 3287 914 5158 1430 5164
1425 3 -3 124 -429 267 -945z"/>
<path d="M7835 12059 c-77 -22 -223 -63 -324 -91 -192 -53 -227 -71 -257 -130
-8 -16 -16 -47 -16 -67 -1 -52 171 -667 197 -705 28 -41 77 -68 127 -68 24 0
187 40 366 90 275 76 328 94 354 118 34 33 58 81 58 119 0 45 -181 678 -203
709 -24 33 -89 66 -132 65 -16 0 -93 -18 -170 -40z"/>
<path d="M4120 6020 l0 -2300 585 0 585 0 0 795 0 795 338 0 c497 0 832 10
832 26 0 8 26 13 82 16 53 2 83 8 86 16 2 6 10 12 18 12 9 0 14 11 14 35 0 23
5 35 14 35 9 0 16 18 20 50 5 34 11 50 21 50 11 0 15 13 15 50 0 38 4 50 15
50 11 0 15 12 15 50 0 36 4 50 14 50 9 0 15 16 19 47 3 27 11 50 21 55 11 6
16 23 16 53 0 33 4 45 15 45 11 0 15 12 15 50 0 34 5 52 16 58 9 5 18 28 21
53 4 24 12 50 20 57 7 7 13 31 13 53 0 28 4 39 15 39 11 0 15 12 15 50 0 38 5
54 20 67 14 12 20 30 20 60 0 32 4 43 15 43 12 0 15 13 15 55 0 40 4 55 14 55
9 0 15 16 19 46 2 26 10 50 17 54 7 4 15 28 17 54 4 30 10 46 19 46 10 0 14
14 14 50 0 36 4 50 14 50 9 0 15 16 19 46 2 26 10 50 17 54 7 4 15 28 17 54 4
30 10 46 19 46 10 0 14 14 14 50 0 38 4 50 15 50 11 0 15 12 15 50 0 36 4 50
14 50 15 0 26 30 26 73 0 17 5 27 15 27 12 0 15 14 15 65 0 48 4 65 14 65 9 0
15 16 19 47 3 27 11 50 21 55 22 13 20 60 -4 81 -11 9 -20 26 -20 37 0 11 -7
20 -15 20 -8 0 -15 7 -15 15 0 8 -7 15 -15 15 -8 0 -15 9 -15 20 0 11 -6 20
-14 20 -8 0 -16 7 -20 15 -3 8 -12 15 -21 15 -8 0 -15 9 -15 20 0 11 -7 20
-15 20 -8 0 -15 7 -15 15 0 8 -7 15 -15 15 -8 0 -15 7 -15 15 0 8 -9 15 -20
15 -11 0 -20 7 -20 15 0 8 -7 15 -15 15 -8 0 -15 6 -15 14 0 7 -9 16 -20 19
-11 3 -20 12 -20 21 0 11 -9 16 -30 16 -19 0 -30 5 -30 14 0 8 -15 17 -35 20
-21 4 -35 13 -35 21 0 8 -9 15 -20 15 -11 0 -20 7 -20 15 0 11 -12 15 -45 15
-32 0 -45 4 -45 14 0 8 -15 17 -34 20 -19 4 -36 11 -38 17 -2 6 -25 13 -51 16
-31 4 -47 10 -47 19 0 11 -17 14 -65 14 -46 0 -67 4 -71 14 -4 9 -39 15 -132
20 -70 3 -128 11 -130 16 -2 6 -383 10 -1058 10 l-1054 0 0 -2300z m1858 1404
c34 -5 52 -11 52 -20 0 -10 14 -14 50 -14 38 0 50 -4 50 -15 0 -10 10 -15 30
-15 17 0 33 -6 36 -14 3 -8 19 -18 35 -21 16 -4 29 -13 29 -21 0 -8 7 -14 15
-14 8 0 15 -7 15 -15 0 -8 9 -15 20 -15 13 0 20 -7 20 -20 0 -11 7 -20 15 -20
10 0 15 -10 15 -30 0 -20 5 -30 15 -30 8 0 17 -14 21 -35 3 -20 12 -35 20 -35
10 0 14 -14 14 -50 0 -38 4 -50 15 -50 13 0 15 -27 15 -185 0 -158 -2 -185
-15 -185 -11 0 -15 -12 -15 -50 0 -37 -4 -50 -14 -50 -8 0 -17 -13 -21 -29 -3
-16 -13 -32 -21 -35 -8 -3 -14 -12 -14 -21 0 -8 -7 -15 -15 -15 -8 0 -15 -9
-15 -20 0 -11 -9 -28 -20 -37 -11 -10 -20 -23 -20 -30 0 -8 -12 -13 -30 -13
-20 0 -30 -5 -30 -15 0 -8 -9 -15 -20 -15 -11 0 -20 -6 -20 -14 0 -14 -29 -26
-66 -26 -12 0 -24 -7 -28 -15 -4 -11 -22 -15 -71 -15 -51 0 -65 -3 -65 -15 0
-13 -44 -15 -335 -15 l-335 0 0 620 0 620 318 0 c174 0 341 -3 370 -6z"/>
<path d="M9540 8290 c0 -19 -5 -30 -14 -30 -15 0 -26 -30 -26 -72 0 -14 -5
-28 -11 -30 -6 -2 -13 -25 -16 -51 -3 -28 -11 -47 -18 -47 -8 0 -14 -21 -17
-61 -3 -44 -9 -64 -21 -71 -12 -6 -17 -22 -17 -53 0 -33 -4 -45 -15 -45 -11 0
-15 -12 -15 -50 0 -36 -4 -50 -14 -50 -9 0 -15 -16 -19 -47 -3 -26 -10 -49
-16 -51 -6 -2 -13 -26 -17 -53 -4 -32 -11 -49 -20 -49 -10 0 -14 -14 -14 -50
0 -36 -4 -50 -14 -50 -9 0 -15 -18 -19 -52 -4 -28 -12 -55 -18 -59 -6 -3 -14
-27 -16 -53 -4 -30 -10 -46 -19 -46 -10 0 -14 -14 -14 -50 0 -36 -4 -50 -14
-50 -9 0 -15 -16 -19 -46 -2 -26 -10 -50 -17 -54 -7 -4 -15 -28 -17 -54 -4
-30 -10 -46 -19 -46 -10 0 -14 -14 -14 -50 0 -38 -4 -50 -15 -50 -11 0 -15
-12 -15 -45 0 -30 -5 -47 -16 -53 -10 -5 -18 -28 -21 -55 -3 -28 -11 -47 -18
-47 -8 0 -14 -21 -17 -62 -3 -35 -10 -64 -16 -66 -7 -2 -12 -16 -12 -30 0 -42
-11 -72 -26 -72 -10 0 -14 -14 -14 -50 0 -38 -4 -50 -15 -50 -11 0 -15 -12
-15 -50 0 -37 -4 -50 -15 -50 -10 0 -16 -16 -21 -50 -4 -32 -11 -50 -20 -50
-10 0 -14 -14 -14 -50 0 -38 -4 -50 -15 -50 -11 0 -15 -12 -15 -50 0 -36 -4
-50 -14 -50 -9 0 -15 -16 -19 -47 -3 -27 -11 -50 -21 -55 -11 -6 -16 -23 -16
-58 0 -38 -4 -50 -15 -50 -11 0 -15 -12 -15 -50 0 -36 -4 -50 -14 -50 -8 0
-16 -17 -20 -46 -3 -25 -13 -52 -21 -60 -8 -9 -15 -33 -15 -55 0 -39 -1 -40
-32 -37 -29 3 -33 7 -36 36 -2 20 -9 32 -18 32 -9 0 -14 11 -14 35 0 24 -5 35
-14 35 -8 0 -17 13 -21 29 -3 16 -13 32 -21 35 -8 3 -14 19 -14 36 0 20 -5 30
-15 30 -10 0 -15 10 -15 30 0 19 -5 30 -14 30 -8 0 -17 15 -20 34 -4 19 -13
37 -21 40 -9 3 -15 18 -15 36 0 20 -5 30 -15 30 -10 0 -15 11 -15 35 0 24 -5
35 -14 35 -8 0 -17 13 -21 29 -3 16 -13 32 -21 35 -8 3 -14 19 -14 36 0 20 -5
30 -15 30 -10 0 -15 11 -15 35 0 24 -5 35 -15 35 -8 0 -15 7 -15 15 0 9 -7 18
-15 21 -8 3 -17 21 -21 40 -3 19 -12 34 -20 34 -9 0 -14 11 -14 30 0 20 -5 30
-15 30 -10 0 -15 10 -15 30 0 18 -6 33 -15 36 -8 3 -17 21 -21 40 -3 19 -12
34 -20 34 -9 0 -14 11 -14 30 0 20 -5 30 -15 30 -10 0 -15 10 -15 30 0 18 -6
33 -15 36 -8 3 -17 21 -21 40 -3 19 -12 34 -19 34 -8 0 -16 14 -20 30 -10 45
-21 36 -28 -20 -3 -28 -13 -57 -22 -66 -9 -10 -15 -34 -15 -65 0 -37 -4 -49
-15 -49 -11 0 -15 -11 -15 -39 0 -22 -7 -46 -15 -55 -8 -8 -18 -35 -21 -60 -4
-25 -13 -47 -20 -50 -9 -3 -14 -22 -14 -51 0 -33 -4 -45 -15 -45 -11 0 -15
-12 -15 -50 0 -34 -5 -52 -14 -56 -8 -3 -16 -27 -20 -55 -5 -33 -11 -49 -21
-49 -11 0 -15 -13 -15 -50 0 -38 -4 -50 -15 -50 -11 0 -15 -12 -15 -45 0 -30
-5 -47 -14 -51 -8 -3 -16 -27 -20 -55 -5 -33 -11 -49 -21 -49 -11 0 -15 -13
-15 -50 0 -38 -4 -50 -15 -50 -11 0 -15 -12 -15 -50 0 -37 -4 -50 -14 -50 -10
0 -17 -16 -22 -47 -4 -27 -11 -51 -17 -55 -6 -3 -13 -34 -15 -67 -3 -40 -9
-61 -17 -61 -7 0 -15 -19 -18 -47 -3 -27 -11 -50 -21 -55 -11 -6 -16 -23 -16
-53 0 -33 -4 -45 -15 -45 -11 0 -15 -12 -15 -50 0 -36 -4 -50 -14 -50 -9 0
-15 -16 -19 -47 -3 -26 -10 -49 -16 -51 -17 -6 -13 -42 4 -42 10 0 15 -10 15
-30 0 -20 5 -30 15 -30 10 0 15 -11 15 -35 0 -24 5 -35 15 -35 8 0 15 -6 15
-13 0 -7 9 -20 20 -30 11 -9 20 -26 20 -37 0 -11 7 -20 15 -20 10 0 15 -10 15
-30 0 -18 6 -33 15 -36 8 -4 15 -11 15 -18 0 -6 9 -19 20 -29 11 -9 20 -26 20
-37 0 -11 7 -20 15 -20 10 0 15 -10 15 -30 0 -20 5 -30 15 -30 8 0 17 -14 21
-35 3 -20 12 -35 20 -35 8 0 14 -9 14 -20 0 -11 7 -20 15 -20 10 0 15 -10 15
-30 0 -20 5 -30 15 -30 8 0 17 -14 21 -35 3 -20 12 -35 20 -35 8 0 14 -9 14
-20 0 -11 7 -20 15 -20 10 0 15 -10 15 -30 0 -20 5 -30 15 -30 8 0 17 -14 21
-35 3 -20 12 -35 20 -35 9 0 14 -11 14 -30 0 -20 5 -30 15 -30 8 0 15 -9 15
-20 0 -11 6 -20 14 -20 8 0 17 -11 20 -25 4 -14 15 -34 26 -45 19 -19 36 -20
615 -20 524 0 595 2 595 15 0 8 9 23 20 32 15 13 20 30 20 65 0 36 4 48 15 48
11 0 15 12 15 50 0 36 4 50 14 50 9 0 15 16 19 46 2 26 10 50 17 54 7 4 15 28
17 54 4 30 10 46 19 46 10 0 14 14 14 50 0 38 4 50 15 50 10 0 15 10 15 28 0
42 11 72 26 72 10 0 14 14 14 50 0 38 4 50 15 50 11 0 15 12 15 50 0 36 4 50
14 50 9 0 15 16 19 47 3 27 11 50 21 55 11 6 16 23 16 53 0 33 4 45 15 45 11
0 15 12 15 50 0 36 4 50 14 50 8 0 15 17 19 50 3 28 13 57 22 66 8 9 15 33 15
55 0 28 4 39 15 39 11 0 15 12 15 45 0 30 5 47 14 51 7 3 16 27 20 54 4 27 11
50 17 52 6 2 13 25 16 51 4 31 10 47 19 47 10 0 14 14 14 50 0 36 4 50 14 50
9 0 16 17 20 49 4 27 12 51 18 53 6 2 13 30 16 61 3 39 9 57 18 57 10 0 14 13
14 39 0 22 7 46 15 55 9 9 19 38 22 66 4 33 11 50 19 50 10 0 14 14 14 50 0
36 4 50 14 50 9 0 15 16 19 47 3 26 10 49 16 51 6 2 13 26 17 53 4 32 11 49
20 49 10 0 14 14 14 50 0 38 4 50 15 50 9 0 15 9 15 21 0 34 34 19 38 -16 2
-17 10 -34 18 -38 9 -5 14 -25 14 -57 0 -36 4 -50 14 -50 9 0 15 -17 18 -56 3
-39 10 -59 21 -66 12 -6 17 -23 17 -58 0 -38 4 -50 15 -50 11 0 15 -12 15 -50
0 -38 4 -50 15 -50 11 0 15 -12 15 -45 0 -30 5 -47 16 -53 10 -5 18 -28 21
-55 4 -31 10 -47 19 -47 10 0 14 -17 14 -65 0 -51 3 -65 15 -65 10 0 15 -10
15 -27 0 -43 11 -73 26 -73 10 0 14 -14 14 -50 0 -38 4 -50 15 -50 11 0 15
-12 15 -50 0 -38 4 -50 15 -50 11 0 15 -12 15 -48 0 -35 5 -52 20 -65 15 -13
20 -29 20 -67 0 -38 4 -50 15 -50 11 0 15 -11 15 -39 0 -22 7 -46 15 -55 8 -8
15 -23 15 -34 0 -41 13 -82 26 -82 10 0 14 -14 14 -50 0 -38 4 -50 15 -50 11
0 15 -12 15 -50 0 -37 4 -50 14 -50 10 0 16 -19 21 -65 5 -45 12 -65 21 -65
10 0 14 -14 14 -50 0 -38 4 -50 15 -50 11 0 15 -12 15 -50 0 -37 4 -50 15 -50
10 0 16 -16 21 -49 4 -28 12 -52 20 -55 9 -4 14 -22 14 -56 0 -38 4 -50 15
-50 11 0 15 -12 15 -50 0 -36 4 -50 14 -50 10 0 16 -18 21 -59 4 -37 12 -62
21 -65 9 -4 14 -21 14 -51 l0 -45 615 0 615 0 6 27 c4 16 11 31 17 34 5 4 12
27 14 53 4 30 10 46 19 46 9 0 14 12 14 35 0 23 5 35 14 35 15 0 26 30 26 73
0 17 5 27 15 27 10 0 15 11 15 35 0 24 5 35 15 35 10 0 15 11 15 35 0 23 7 41
20 52 11 10 20 30 20 45 0 18 5 28 15 28 11 0 15 12 15 50 0 38 4 50 15 50 10
0 15 11 15 35 0 23 5 35 14 35 15 0 26 30 26 73 0 17 5 27 15 27 10 0 15 11
15 35 0 23 5 35 14 35 8 0 15 16 19 42 3 23 13 45 21 50 9 5 16 22 16 38 0 20
5 30 15 30 11 0 15 12 15 50 0 36 4 50 14 50 8 0 17 15 20 35 4 21 13 35 21
35 11 0 15 13 15 50 0 38 4 50 15 50 10 0 15 11 15 35 0 23 5 35 14 35 14 0
26 29 26 66 0 12 7 24 15 28 9 3 15 18 15 36 0 20 5 30 15 30 11 0 15 11 15
39 0 22 6 46 14 53 7 8 17 29 21 46 3 18 13 32 21 32 9 0 14 11 14 35 0 24 5
35 15 35 11 0 15 12 15 50 0 36 4 50 14 50 8 0 17 15 20 34 4 19 11 36 17 38
6 2 13 25 16 51 4 31 10 47 19 47 9 0 14 11 14 30 0 18 6 33 15 36 8 4 15 16
15 28 0 37 12 66 26 66 9 0 14 12 14 35 0 24 5 35 15 35 11 0 15 12 15 50 0
37 4 50 14 50 8 0 18 14 21 33 4 17 12 35 17 38 6 4 13 27 15 53 4 30 10 46
19 46 9 0 14 11 14 30 0 16 7 33 16 38 8 5 18 27 21 50 4 26 11 42 19 42 9 0
14 12 14 35 0 23 5 35 14 35 9 0 15 16 19 47 3 27 11 50 21 55 9 5 16 22 16
38 0 20 5 30 15 30 11 0 15 12 15 50 0 38 4 50 15 50 10 0 15 10 15 30 0 16 7
33 16 38 8 5 18 27 21 50 4 26 11 42 19 42 10 0 14 13 14 40 0 29 4 40 15 40
9 0 15 9 15 23 0 38 12 67 26 67 9 0 14 12 14 35 0 24 5 35 15 35 11 0 15 12
15 50 0 38 4 50 15 50 10 0 15 10 15 31 0 22 5 32 20 36 16 4 20 14 20 49 0
32 4 44 15 44 11 0 15 11 15 35 0 22 6 38 15 41 8 4 15 16 15 28 0 37 12 66
26 66 9 0 14 12 14 35 0 23 5 35 14 35 9 0 15 16 19 47 3 26 10 49 16 51 6 2
13 19 17 38 3 19 12 34 20 34 10 0 14 14 14 50 0 38 4 50 15 50 10 0 15 11 15
35 0 23 5 35 14 35 14 0 26 29 26 66 0 12 7 24 15 28 9 3 15 18 15 36 0 20 5
30 15 30 11 0 15 11 15 35 0 22 6 38 15 41 8 4 15 17 15 30 l0 24 -614 0 -613
0 -6 -42 c-3 -24 -10 -44 -16 -46 -6 -2 -13 -19 -17 -38 -3 -19 -12 -34 -20
-34 -9 0 -14 -12 -14 -35 0 -24 -5 -35 -15 -35 -10 0 -15 -11 -15 -35 0 -23
-7 -41 -20 -52 -11 -10 -20 -30 -20 -45 0 -18 -5 -28 -15 -28 -10 0 -15 -11
-15 -35 0 -24 -5 -35 -15 -35 -10 0 -15 -10 -15 -27 0 -43 -11 -73 -26 -73 -9
0 -14 -12 -14 -35 0 -24 -5 -35 -15 -35 -10 0 -15 -11 -15 -35 0 -24 -5 -35
-15 -35 -10 0 -15 -11 -15 -35 0 -23 -7 -41 -20 -52 -11 -10 -20 -30 -20 -45
0 -18 -5 -28 -15 -28 -10 0 -15 -11 -15 -35 0 -24 -5 -35 -15 -35 -10 0 -15
-10 -15 -27 0 -43 -11 -73 -26 -73 -9 0 -14 -12 -14 -35 0 -24 -5 -35 -15 -35
-10 0 -15 -11 -15 -35 0 -24 -5 -35 -15 -35 -9 0 -15 -9 -15 -22 0 -39 -12
-68 -26 -68 -9 0 -14 -12 -14 -35 0 -24 -5 -35 -15 -35 -10 0 -15 -11 -15 -35
0 -24 -5 -35 -15 -35 -10 0 -15 -10 -15 -27 0 -43 -11 -73 -26 -73 -9 0 -14
-11 -14 -30 0 -20 -5 -30 -15 -30 -11 0 -15 -11 -15 -39 0 -22 -7 -46 -15 -55
-8 -8 -18 -29 -21 -45 -4 -17 -13 -31 -20 -31 -9 0 -14 -12 -14 -35 0 -24 -5
-35 -15 -35 -10 0 -15 -10 -15 -34 0 -19 -6 -41 -14 -48 -7 -8 -17 -29 -21
-46 -3 -18 -13 -32 -21 -32 -9 0 -14 -11 -14 -35 0 -23 -5 -35 -14 -35 -9 0
-15 -16 -19 -47 -3 -26 -10 -49 -16 -51 -6 -2 -13 -19 -17 -38 -3 -19 -12 -34
-20 -34 -9 0 -14 -12 -14 -35 0 -24 -5 -35 -15 -35 -10 0 -15 -10 -15 -34 0
-19 -6 -41 -14 -48 -7 -8 -17 -28 -20 -45 -4 -17 -14 -34 -22 -37 -8 -3 -14
-19 -14 -36 0 -20 -5 -30 -15 -30 -10 0 -15 -10 -15 -27 0 -43 -11 -73 -26
-73 -9 0 -14 -12 -14 -35 0 -24 -5 -35 -15 -35 -10 0 -15 -11 -15 -35 0 -24
-5 -35 -15 -35 -10 0 -15 -11 -15 -35 0 -23 -7 -41 -20 -52 -11 -10 -20 -30
-20 -45 0 -18 -5 -28 -15 -28 -10 0 -15 -11 -15 -35 0 -24 -5 -35 -15 -35 -10
0 -15 11 -15 35 0 23 -5 35 -14 35 -17 0 -26 31 -26 88 0 31 -4 42 -15 42 -11
0 -15 12 -15 50 0 36 -4 50 -14 50 -9 0 -15 18 -19 52 -4 28 -12 55 -18 59 -7
4 -14 32 -17 63 -3 39 -9 56 -18 56 -10 0 -14 15 -14 55 0 40 -4 55 -14 55 -9
0 -15 16 -19 46 -2 26 -10 50 -17 54 -7 4 -15 28 -17 54 -4 30 -10 46 -19 46
-10 0 -14 17 -14 65 0 48 -4 65 -14 65 -9 0 -15 16 -19 46 -2 26 -10 50 -17
54 -7 4 -15 31 -18 59 -3 34 -9 51 -18 51 -10 0 -14 14 -14 49 0 31 -6 55 -15
65 -8 8 -15 23 -15 34 0 41 -13 82 -26 82 -10 0 -14 14 -14 50 0 36 -4 50 -14
50 -10 0 -15 18 -18 62 -3 34 -10 64 -16 66 -6 2 -14 26 -18 53 -4 32 -11 49
-20 49 -10 0 -14 14 -14 50 0 38 -4 50 -15 50 -11 0 -15 12 -15 50 0 34 -5 52
-14 56 -9 3 -17 28 -21 65 -5 41 -11 59 -21 59 -10 0 -14 14 -14 55 0 42 -3
55 -15 55 -11 0 -15 12 -15 50 0 37 -4 50 -14 50 -10 0 -16 19 -21 65 -5 45
-12 65 -21 65 -10 0 -14 14 -14 50 0 38 -4 50 -15 50 -11 0 -15 12 -15 50 0
37 -4 50 -14 50 -10 0 -16 19 -21 65 -5 45 -12 65 -21 65 -10 0 -14 14 -14 50
0 38 -4 50 -15 50 -11 0 -15 12 -15 50 0 38 -4 50 -15 50 -8 0 -15 7 -15 15 0
13 -59 15 -470 15 l-470 0 0 -30z"/>
<path d="M14608 8263 c-12 -3 -18 -14 -18 -31 0 -42 -11 -72 -26 -72 -9 0 -14
-12 -14 -35 0 -24 -5 -35 -15 -35 -11 0 -15 -12 -15 -45 0 -33 -4 -45 -15 -45
-10 0 -15 -11 -15 -35 0 -24 -5 -35 -15 -35 -10 0 -16 -16 -21 -50 -4 -32 -11
-50 -20 -50 -9 0 -14 -12 -14 -35 0 -23 -5 -35 -14 -35 -9 0 -15 -16 -19 -47
-3 -26 -10 -49 -16 -51 -6 -2 -13 -19 -17 -38 -3 -19 -12 -34 -20 -34 -10 0
-14 -14 -14 -50 0 -38 -4 -50 -15 -50 -10 0 -15 -10 -15 -30 0 -16 -7 -33 -16
-38 -8 -5 -18 -27 -21 -50 -4 -26 -11 -42 -19 -42 -10 0 -14 -13 -14 -40 0
-27 -4 -40 -14 -40 -8 0 -15 -16 -19 -42 -3 -23 -13 -45 -21 -50 -9 -5 -16
-22 -16 -38 0 -20 -5 -30 -15 -30 -11 0 -15 -12 -15 -50 0 -38 -4 -50 -15 -50
-10 0 -15 -10 -15 -27 0 -43 -11 -73 -26 -73 -9 0 -14 -12 -14 -35 0 -24 -5
-35 -15 -35 -10 0 -15 -10 -15 -30 0 -19 5 -30 14 -30 9 0 15 -16 19 -47 3
-27 11 -50 21 -55 9 -5 16 -22 16 -39 0 -17 7 -37 15 -45 8 -9 15 -31 15 -50
0 -24 5 -34 15 -34 11 0 15 -12 15 -50 0 -36 4 -50 14 -50 15 0 26 -30 26 -72
0 -18 5 -28 15 -28 11 0 15 -12 15 -50 0 -38 4 -50 15 -50 10 0 15 -11 15 -35
0 -23 5 -35 14 -35 15 0 26 -30 26 -72 0 -18 5 -28 15 -28 11 0 15 -12 15 -50
0 -38 4 -50 15 -50 10 0 15 -10 15 -27 0 -43 11 -73 26 -73 10 0 14 -14 14
-50 0 -38 4 -50 15 -50 10 0 15 -11 15 -35 0 -23 5 -35 14 -35 9 0 15 -16 19
-46 2 -26 11 -50 18 -54 7 -5 15 -35 17 -69 l4 -61 -506 0 c-499 0 -506 0
-506 -20 0 -11 -7 -20 -15 -20 -11 0 -15 -12 -15 -45 0 -33 -4 -45 -15 -45
-10 0 -15 -11 -15 -35 0 -24 -5 -35 -15 -35 -10 0 -16 -16 -21 -50 -4 -32 -11
-50 -20 -50 -9 0 -14 -12 -14 -35 0 -23 -5 -35 -14 -35 -9 0 -15 -16 -19 -47
-3 -26 -10 -49 -16 -51 -6 -2 -13 -19 -17 -38 -3 -19 -12 -34 -20 -34 -10 0
-14 -14 -14 -50 0 -38 -4 -50 -15 -50 -10 0 -15 -10 -15 -30 0 -16 -7 -33 -16
-38 -8 -5 -18 -27 -21 -50 -4 -26 -11 -42 -19 -42 -9 0 -14 -12 -14 -35 l0
-35 820 0 820 0 0 -35 c0 -24 5 -35 15 -35 10 0 15 -11 15 -35 0 -23 5 -35 14
-35 9 0 16 -18 20 -50 5 -34 11 -50 21 -50 11 0 15 -13 15 -50 0 -36 4 -50 14
-50 8 0 15 -16 19 -41 3 -23 10 -45 15 -48 5 -3 13 -21 17 -40 4 -19 14 -41
21 -49 8 -7 14 -31 14 -53 0 -28 4 -39 15 -39 11 0 15 -12 15 -45 0 -32 4 -45
14 -45 15 0 26 -30 26 -72 0 -18 5 -28 15 -28 8 0 15 -7 15 -15 0 -13 77 -15
635 -15 417 0 635 3 635 10 0 6 -7 10 -15 10 -10 0 -15 10 -15 33 0 20 -8 39
-20 50 -13 11 -20 29 -20 52 0 24 -5 35 -15 35 -11 0 -15 12 -15 50 0 38 -4
50 -15 50 -10 0 -15 11 -15 35 0 23 -5 35 -14 35 -15 0 -26 30 -26 73 0 17 -5
27 -15 27 -11 0 -15 12 -15 50 0 38 -4 50 -15 50 -10 0 -15 10 -15 30 0 16 -7
33 -16 38 -10 5 -18 28 -21 55 -4 31 -10 47 -19 47 -10 0 -14 14 -14 45 0 31
-5 47 -14 51 -8 3 -18 20 -22 37 -3 18 -11 35 -16 38 -6 4 -13 27 -15 53 -4
30 -10 46 -19 46 -10 0 -14 14 -14 45 0 32 -4 45 -14 45 -8 0 -17 15 -21 36
-3 20 -13 43 -21 51 -8 8 -14 30 -14 49 0 24 -5 34 -15 34 -11 0 -15 12 -15
50 0 36 -4 50 -14 50 -8 0 -17 15 -20 34 -4 19 -11 36 -17 38 -6 2 -13 25 -16
51 -3 28 -11 47 -18 47 -7 0 -15 19 -18 47 -3 26 -10 49 -16 51 -6 2 -13 19
-17 38 -3 19 -12 34 -20 34 -10 0 -14 14 -14 50 0 38 -4 50 -15 50 -10 0 -15
10 -15 28 0 42 -11 72 -26 72 -9 0 -14 12 -14 35 0 24 -5 35 -15 35 -11 0 -15
12 -15 50 0 36 -4 50 -14 50 -8 0 -15 16 -19 42 -3 23 -13 45 -21 50 -10 6
-16 23 -16 43 0 24 -5 35 -15 35 -11 0 -15 12 -15 45 0 31 -4 45 -14 45 -9 0
-15 16 -19 47 -3 27 -11 50 -21 55 -9 5 -16 22 -16 38 0 20 -5 30 -15 30 -11
0 -15 12 -15 50 0 38 -4 50 -15 50 -10 0 -15 10 -15 28 0 42 -11 72 -26 72 -9
0 -14 12 -14 35 0 24 -5 35 -15 35 -11 0 -15 12 -15 50 0 36 -4 50 -14 50 -9
0 -16 18 -20 50 -5 34 -11 50 -21 50 -10 0 -15 11 -15 35 0 24 -5 35 -15 35
-11 0 -15 12 -15 50 0 36 -4 50 -14 50 -8 0 -15 16 -19 42 -3 23 -13 45 -21
50 -10 6 -16 23 -16 43 0 24 -5 35 -15 35 -11 0 -15 12 -15 45 0 33 -4 45 -15
45 -10 0 -15 10 -15 28 0 42 -11 72 -26 72 -9 0 -14 12 -14 35 0 24 -5 35 -15
35 -11 0 -15 12 -15 50 0 37 -4 50 -14 50 -8 0 -18 14 -21 33 -4 17 -12 35
-17 38 -6 4 -13 27 -15 53 -4 30 -10 46 -19 46 -10 0 -14 14 -14 45 0 31 -5
47 -14 51 -8 3 -18 20 -22 37 -3 17 -13 37 -20 45 -8 7 -14 31 -14 53 0 28 -4
39 -15 39 -11 0 -15 12 -15 45 0 32 -4 45 -14 45 -8 0 -17 15 -21 36 -3 20
-13 43 -21 51 -8 8 -14 32 -14 54 0 26 -4 39 -14 39 -8 0 -15 16 -19 41 -3 23
-10 45 -15 48 -6 3 -13 23 -17 44 -7 36 -12 39 -47 30z"/>
</g>
</svg>
